<?xml version="1.0" standalone="no"?>
<!DOCTYPE svg PUBLIC "-//W3C//DTD SVG 20010904//EN"
 "http://www.w3.org/TR/2001/REC-SVG-20010904/DTD/svg10.dtd">
<svg version="1.0" xmlns="http://www.w3.org/2000/svg"
 width="908.000000pt" height="908.000000pt" viewBox="0 0 908.000000 908.000000"
 preserveAspectRatio="xMidYMid meet">
<metadata>
Created by potrace 1.14, written by Peter Selinger 2001-2017
</metadata>
<g transform="translate(0.000000,908.000000) scale(0.100000,-0.100000)"
fill="#000000" stroke="none">
<path d="M4225 8780 c-572 -50 -1085 -194 -1585 -445 -153 -76 -382 -211 -486
-285 -138 -98 -276 -201 -308 -229 -17 -16 -69 -62 -116 -103 -47 -42 -143
-134 -215 -207 -71 -72 -137 -131 -146 -131 -22 0 -49 -32 -49 -57 0 -34 -61
-102 -91 -102 -34 -1 -50 -21 -47 -58 1 -21 -8 -43 -28 -69 -68 -87 -206 -298
-284 -434 -190 -330 -345 -708 -430 -1050 -17 -69 -35 -138 -40 -155 -16 -50
-58 -307 -77 -463 -24 -208 -24 -708 1 -917 49 -422 155 -825 312 -1192 93
-218 145 -321 252 -503 250 -425 511 -735 938 -1111 27 -23 201 -154 329 -248
124 -91 463 -281 625 -351 41 -18 102 -45 135 -60 201 -92 607 -212 875 -260
624 -110 1264 -85 1845 72 212 57 458 141 580 197 22 11 86 40 142 65 318 143
673 372 963 620 350 298 676 687 897 1071 109 188 138 243 186 350 25 55 56
125 70 155 120 268 243 704 291 1040 32 223 40 343 40 625 -1 478 -50 802
-196 1280 -136 447 -385 921 -697 1325 -73 95 -81 105 -208 245 -688 762
-1635 1247 -2678 1371 -153 18 -651 27 -800 14z m705 -31 c143 -12 295 -34
425 -61 241 -48 578 -144 715 -203 30 -13 100 -43 155 -66 914 -382 1698
-1132 2135 -2044 42 -88 83 -176 90 -195 7 -19 23 -58 36 -86 32 -73 108 -302
142 -429 110 -407 142 -637 149 -1050 7 -432 -24 -715 -122 -1103 -44 -176
-129 -444 -165 -527 -10 -22 -41 -94 -70 -160 -115 -266 -288 -564 -474 -815
-172 -232 -503 -577 -726 -756 -635 -510 -1367 -819 -2185 -921 -177 -22 -761
-25 -925 -5 -454 56 -842 158 -1212 318 -529 229 -952 516 -1347 914 -275 277
-541 633 -705 944 -18 33 -51 95 -73 136 -22 41 -59 120 -82 174 -143 336
-192 488 -285 891 -52 226 -79 514 -79 830 0 415 38 705 144 1105 118 444 347
941 591 1282 162 227 179 248 197 239 21 -12 101 -97 101 -108 0 -5 -8 -24
-19 -43 -10 -19 -22 -53 -25 -76 -7 -38 -11 -42 -60 -63 -63 -26 -129 -89
-162 -153 -13 -26 -35 -55 -49 -64 -28 -19 -34 -64 -10 -84 7 -6 17 -33 20
-58 10 -70 21 -100 66 -169 l41 -63 -52 -118 c-29 -64 -61 -135 -71 -157 -67
-147 -150 -412 -203 -645 -72 -320 -90 -517 -83 -898 5 -282 19 -434 58 -627
147 -729 443 -1324 927 -1860 302 -335 692 -634 1082 -828 252 -126 341 -163
575 -237 424 -136 795 -188 1254 -177 319 8 526 34 785 98 240 60 476 137 621
204 375 172 614 316 890 538 116 93 131 102 136 83 4 -18 6 -16 12 11 5 24 41
66 138 162 73 72 136 128 142 124 6 -3 7 -1 3 6 -5 7 9 30 36 59 24 26 65 75
91 110 27 34 55 62 63 62 8 0 12 5 9 10 -4 6 8 30 27 53 182 227 427 681 532
984 159 459 214 767 223 1243 4 236 8 286 20 294 41 23 57 151 27 221 -8 21
-33 65 -53 99 -30 48 -42 81 -55 156 -9 52 -21 109 -26 125 -5 17 -28 99 -50
184 -43 159 -113 362 -170 491 -54 119 -182 369 -225 439 -37 58 -183 278
-213 320 -11 15 -7 21 25 42 87 56 92 136 10 158 -62 17 -145 31 -182 31 -28
0 -55 23 -226 193 -367 363 -725 605 -1199 809 -346 150 -745 250 -1145 289
-253 24 -626 13 -905 -27 -274 -39 -708 -162 -910 -256 -25 -11 -79 -35 -121
-54 -364 -156 -850 -498 -1134 -799 -56 -60 -108 -77 -155 -50 -14 7 -38 21
-55 29 -16 9 -43 36 -59 61 -16 25 -52 67 -82 92 l-53 46 57 65 c74 85 298
291 432 398 467 373 1001 641 1573 789 491 127 953 167 1447 124z m-114 -439
c176 -13 273 -27 452 -62 357 -69 663 -173 993 -338 128 -64 377 -211 454
-269 28 -20 77 -57 110 -81 146 -106 319 -261 475 -423 l84 -89 -99 7 c-470
31 -578 53 -985 205 -91 34 -210 72 -265 86 -116 29 -308 44 -319 25 -5 -8
-22 -1 -56 23 -112 81 -273 148 -397 166 -77 11 -132 8 -245 -16 -24 -5 -28
-3 -28 14 0 41 -41 131 -81 176 -49 56 -152 118 -233 142 -74 21 -156 15 -217
-16 -63 -32 -178 -153 -217 -227 -18 -35 -40 -63 -47 -63 -37 0 -221 -67 -325
-118 -63 -31 -117 -60 -120 -63 -16 -19 -50 -27 -81 -19 -19 5 -115 16 -214
25 -99 9 -202 20 -230 25 -113 20 -181 24 -405 25 l-235 1 -102 32 c-139 43
-137 44 -129 -20 7 -53 18 -79 79 -188 28 -50 39 -85 47 -145 33 -250 47 -290
139 -389 56 -60 77 -100 50 -94 -26 6 -17 -19 13 -37 18 -10 53 -40 76 -67 29
-31 52 -48 67 -48 57 0 57 -6 2 -118 -79 -162 -104 -222 -167 -397 -104 -288
-160 -429 -187 -470 -96 -145 -311 -283 -382 -246 -57 31 -79 157 -41 236 22
45 79 105 125 130 l30 17 -44 -6 c-66 -10 -148 -55 -196 -109 -139 -153 -100
-370 78 -436 68 -25 128 -27 187 -6 23 8 44 15 46 15 1 0 -6 -26 -17 -57 -14
-38 -23 -96 -26 -165 -5 -94 -3 -116 17 -178 17 -53 31 -78 57 -99 37 -30 134
-64 159 -54 11 4 14 -4 14 -33 0 -43 29 -255 60 -439 30 -177 38 -490 16 -615
-28 -160 -98 -269 -196 -304 l-45 -17 65 4 c51 3 79 12 123 37 65 37 138 113
173 181 41 82 74 213 74 298 l0 76 22 -35 c11 -19 58 -93 103 -165 155 -246
245 -467 245 -604 0 -100 -33 -167 -104 -212 l-30 -18 27 3 c15 1 37 12 50 23
12 10 33 27 47 36 14 9 35 24 47 33 17 12 4 -25 -59 -178 -125 -300 -130 -315
-130 -388 -1 -38 6 -81 16 -104 9 -21 16 -42 16 -47 0 -5 -35 -46 -79 -92
-246 -258 -317 -364 -383 -575 l-19 -63 -37 21 c-63 37 -272 194 -367 275
-127 108 -323 302 -427 423 -492 573 -791 1249 -895 2027 -24 183 -24 675 0
863 50 395 147 748 302 1103 92 213 89 208 112 191 57 -40 109 -55 198 -55
118 -1 174 23 265 116 36 37 71 67 77 67 20 0 46 48 41 74 -5 22 -2 24 57 28
115 10 208 75 263 188 38 78 38 185 -1 260 -15 28 -27 62 -27 74 0 31 -20 54
-51 60 -14 2 -48 16 -75 30 -27 14 -68 31 -91 36 -24 6 -43 15 -43 20 0 13
256 247 364 334 427 341 920 587 1431 714 236 59 492 101 700 115 117 8 382 6
501 -3z m-70 -492 c90 -44 138 -81 173 -132 24 -36 61 -125 61 -148 0 -4 -27
-21 -59 -38 -33 -16 -62 -34 -66 -40 -4 -6 -18 5 -34 27 -35 48 -118 118 -162
138 l-34 14 35 1 c35 2 35 2 8 11 -38 14 -96 -4 -144 -45 -55 -47 -98 -133
-128 -252 -73 -289 -46 -536 97 -915 79 -207 261 -501 401 -647 56 -58 64 -72
45 -72 -25 0 -173 109 -255 186 -126 120 -267 315 -340 469 -51 108 -137 362
-131 387 3 9 1 18 -4 20 -4 2 -16 46 -25 98 -22 128 -15 415 14 545 30 137 81
236 166 320 98 97 140 117 236 112 61 -3 88 -10 146 -39z m-130 -201 c32 12
167 -98 204 -167 10 -18 1 -14 -36 17 -71 59 -128 85 -198 89 l-61 4 80 -27
c99 -34 171 -80 225 -141 28 -32 40 -41 40 -29 0 11 5 15 11 11 6 -3 4 7 -5
24 -14 27 -14 31 2 45 33 30 123 68 195 84 170 36 362 -17 565 -157 48 -32
112 -83 142 -112 62 -60 203 -221 249 -285 56 -77 43 -45 -18 46 -80 119 -149
203 -229 279 l-67 64 90 -6 c50 -2 126 -12 170 -21 72 -15 314 -96 390 -130
110 -50 331 -116 468 -140 48 -8 185 -22 305 -30 405 -30 533 -50 540 -88 5
-27 -56 -79 -125 -105 -33 -12 -71 -34 -84 -48 l-24 -27 35 18 35 18 -24 -26
c-13 -15 -27 -24 -31 -22 -10 6 -54 -59 -84 -125 -14 -30 -49 -139 -79 -242
-50 -172 -58 -192 -108 -261 -30 -41 -62 -90 -72 -108 -16 -28 -20 -31 -28
-17 -13 23 31 120 51 112 8 -3 3 7 -11 23 -15 15 -31 37 -37 48 -6 11 -12 14
-12 7 0 -7 -3 -11 -8 -8 -4 2 -6 -28 -4 -68 2 -40 0 -88 -6 -108 -8 -29 -7
-35 6 -34 8 0 17 -5 19 -11 6 -18 -32 -16 -51 2 -19 20 -23 19 -29 -5 -3 -10
0 -18 5 -17 15 3 30 -57 26 -106 l-3 -42 -19 32 c-11 17 -38 41 -60 54 -31 17
-38 18 -27 6 11 -15 10 -25 -13 -72 -14 -31 -26 -60 -26 -66 0 -6 -4 -7 -10
-4 -5 3 -10 -2 -10 -11 0 -32 -10 -8 -21 51 -11 60 -49 148 -70 161 -6 4 -10
3 -7 -2 37 -77 49 -113 63 -192 10 -54 14 -104 10 -120 -8 -27 -8 -26 -20 14
-7 23 -18 51 -24 62 -8 14 -8 23 -1 27 12 7 10 74 -2 81 -4 3 -8 -2 -8 -11 0
-10 -5 -13 -12 -9 -8 5 -9 -2 -5 -24 4 -20 2 -32 -4 -32 -6 0 -8 -7 -5 -15 3
-9 -1 -18 -8 -21 -19 -7 -56 13 -56 30 0 8 -7 20 -16 27 -15 12 -16 11 -11 -6
3 -11 8 -36 12 -55 6 -33 5 -34 -10 -16 -12 17 -15 17 -15 4 0 -21 28 -50 41
-43 5 4 9 15 9 26 0 16 4 19 20 14 12 -4 27 -2 35 5 21 17 31 -8 42 -102 3
-27 9 -48 14 -48 5 0 6 15 4 33 -4 24 -3 27 3 12 7 -16 11 -11 22 33 8 28 17
52 21 52 4 0 16 19 27 43 11 23 36 57 55 75 l34 33 22 -37 c16 -27 25 -34 33
-26 16 16 22 106 9 143 -14 40 -10 44 30 30 61 -21 112 17 53 39 -25 10 -25
10 -7 33 10 12 43 53 73 90 l54 68 48 -183 c94 -358 123 -535 138 -848 14
-284 -5 -449 -79 -681 -54 -168 -187 -370 -335 -509 -175 -164 -236 -224 -231
-228 2 -2 26 13 52 34 26 21 41 30 33 19 -89 -118 -153 -431 -121 -594 14 -72
55 -166 106 -241 20 -30 41 -63 47 -73 9 -17 8 -18 -24 -1 -147 74 -307 230
-385 372 -51 93 -99 227 -109 302 -5 40 -3 54 16 79 12 17 26 28 32 25 6 -4 8
-2 5 3 -8 13 17 36 28 25 5 -4 5 -1 1 6 -4 7 15 46 47 95 118 180 174 310 237
552 60 231 72 401 50 720 -11 158 -32 319 -38 292 -2 -10 1 -46 7 -80 6 -34
15 -161 22 -281 15 -293 3 -399 -82 -706 -35 -129 -108 -308 -145 -357 -13
-17 -24 -36 -24 -42 0 -6 -9 -20 -20 -31 -11 -11 -18 -20 -14 -20 9 0 -74
-112 -134 -180 -31 -35 -106 -116 -166 -180 -345 -366 -474 -562 -476 -720
l-1 -35 -24 48 c-90 175 -94 519 -8 792 14 44 55 157 90 250 101 263 102 266
123 343 21 75 26 137 11 128 -4 -3 -11 -24 -14 -46 -5 -40 -58 -125 -70 -113
-4 3 -7 -1 -7 -9 0 -21 -132 -145 -211 -199 -69 -47 -211 -121 -218 -114 -2 3
30 40 72 84 81 85 149 192 198 311 17 41 36 89 44 105 16 37 51 166 60 220 6
39 7 40 51 42 47 2 151 47 234 101 25 16 79 50 122 75 175 108 245 179 236
240 -6 44 -35 36 -463 -132 -71 -28 -132 -51 -135 -51 -3 0 -5 138 -5 308 -1
314 -12 451 -51 625 -24 105 -26 74 -4 -59 36 -217 49 -545 31 -774 l-6 -85
-7 115 c-12 195 -36 299 -118 513 -38 100 -30 58 15 -78 53 -162 61 -198 84
-414 18 -170 18 -174 0 -192 -11 -11 -19 -15 -19 -11 0 5 -9 18 -21 31 -12 12
-38 52 -59 87 -21 36 -40 62 -42 57 -3 -4 -3 -2 -1 6 2 8 -3 32 -11 55 -22 60
-59 516 -42 516 4 0 17 -5 29 -11 21 -10 22 -10 2 5 -11 8 -25 19 -31 25 -6 5
-12 40 -13 77 -2 85 -28 349 -42 427 -12 69 -32 124 -25 67 14 -98 36 -337 40
-427 4 -76 2 -103 -7 -103 -7 0 -46 21 -87 46 -75 45 -270 114 -360 128 -87
14 -80 -5 -81 209 -1 106 -5 226 -9 267 -7 68 -8 63 -8 -55 0 -71 0 -188 -1
-260 l-2 -130 -70 75 c-137 145 -307 415 -379 600 -48 126 -106 309 -127 402
-27 125 -25 382 5 501 23 91 80 227 110 260 24 28 76 59 80 47 2 -5 10 -6 18
-3z m-415 -75 c-44 -82 -74 -436 -52 -612 46 -371 221 -738 479 -1004 62 -64
227 -196 245 -196 30 -1 -24 -18 -75 -25 l-58 -6 -1 63 -2 63 -9 -67 c-10 -66
-11 -67 -47 -79 -51 -16 -66 -34 -21 -24 64 13 65 13 69 -30 l5 -40 5 45 6 45
90 3 c134 4 135 4 135 -71 0 -116 -47 -517 -62 -532 -2 -2 -28 -12 -58 -23
-30 -10 -62 -22 -71 -26 -13 -6 -18 11 -32 111 -10 65 -17 141 -18 168 -1 28
-5 61 -10 75 -14 39 -2 -200 17 -331 8 -63 22 -142 30 -177 8 -35 12 -67 9
-72 -4 -6 -1 -10 4 -10 16 0 13 -27 -5 -55 -17 -27 -13 -31 15 -15 16 8 22 0
44 -57 l27 -66 -21 -46 c-11 -25 -26 -69 -32 -98 l-12 -52 -110 83 c-155 117
-275 247 -392 424 -172 261 -252 488 -304 867 -17 119 -17 439 -1 535 14 80
42 180 51 180 3 0 7 15 8 33 2 31 1 30 -24 -18 -15 -27 -28 -57 -29 -65 -1 -8
-10 -49 -20 -90 -26 -109 -27 -516 -1 -680 16 -101 17 -127 6 -218 -8 -66 -10
-157 -6 -255 9 -194 32 -305 95 -456 18 -41 30 -76 29 -77 -7 -7 -177 109
-172 117 3 4 -20 23 -52 41 -62 35 -252 210 -234 216 6 2 47 -6 93 -17 45 -12
83 -19 85 -17 12 11 -90 49 -145 54 l-62 5 -45 68 c-53 79 -121 220 -169 347
l-33 91 26 10 c95 36 134 44 256 48 72 3 157 0 190 -5 33 -6 62 -8 63 -7 11
11 -66 35 -137 44 -123 16 -256 -6 -392 -63 -56 -24 -78 497 -31 719 53 246
158 506 275 682 123 185 227 289 401 402 87 55 92 65 15 27 -135 -68 -279
-196 -400 -356 -105 -140 -224 -393 -288 -615 -69 -241 -82 -618 -27 -830 l12
-50 -43 -28 c-24 -16 -53 -43 -65 -60 l-22 -32 39 29 c22 16 51 38 64 48 32
25 38 23 46 -13 4 -17 18 -56 32 -86 23 -49 24 -59 14 -100 -24 -92 -172 -392
-216 -436 -6 -7 -14 -19 -18 -27 -12 -31 -6 158 8 220 11 55 11 62 0 46 -8
-10 -19 -44 -26 -75 -13 -64 -18 -283 -6 -323 6 -23 4 -28 -9 -28 -14 0 -12
-5 7 -22 14 -13 31 -39 39 -58 17 -41 33 -63 79 -107 19 -18 32 -33 28 -33
-15 0 -96 44 -92 51 3 3 -8 9 -23 12 -66 13 -217 187 -244 281 -7 26 -13 35
-15 23 -8 -31 28 -116 73 -177 25 -33 78 -85 118 -117 l73 -58 6 -100 c3 -55
14 -132 24 -172 11 -41 15 -69 9 -65 -25 15 -205 139 -252 173 -59 43 -96 79
-183 174 -119 131 -213 381 -215 571 -1 93 4 103 89 160 60 41 37 46 -26 6
-72 -47 -142 -116 -196 -194 -105 -153 -146 -273 -124 -367 15 -69 -14 -30
-34 44 -34 133 -9 296 69 432 l24 41 -23 -10 c-13 -6 -21 -16 -19 -22 13 -35
-81 -76 -172 -76 -145 0 -233 87 -234 231 0 121 74 225 197 273 37 15 37 15
13 -2 -45 -30 -87 -82 -99 -121 -22 -76 -7 -165 36 -213 15 -17 15 -18 -2 -18
-25 0 -82 45 -90 71 -4 11 -9 18 -11 16 -10 -10 25 -75 51 -95 35 -28 92 -29
175 -3 75 24 125 56 209 135 36 34 58 52 51 41 -15 -20 -15 -20 9 0 33 29 149
237 122 221 -5 -3 7 36 26 87 19 50 54 146 78 212 165 462 358 799 609 1063
178 188 527 417 788 517 130 50 143 53 129 27z m-1683 -104 c99 -29 115 -31
222 -28 174 6 298 2 433 -15 127 -15 443 -45 487 -45 20 0 7 -11 -57 -54 -182
-119 -405 -327 -516 -482 -46 -64 -140 -213 -177 -282 l-24 -42 -23 22 c-21
19 -26 20 -34 8 -14 -21 -113 88 -116 127 -1 16 -5 48 -10 73 -6 36 -12 46
-30 48 -13 2 -23 4 -23 5 0 1 7 26 14 55 14 51 14 53 -10 81 -17 20 -21 32
-13 37 6 3 15 0 20 -7 6 -9 9 0 9 28 0 32 6 46 25 61 14 11 25 29 25 39 0 16
7 19 40 19 22 -1 40 2 40 5 0 4 -10 18 -21 33 -12 15 -18 30 -15 33 7 8 66 -5
176 -38 41 -12 82 -24 90 -26 11 -3 9 -9 -10 -23 -24 -18 -24 -19 -5 -26 62
-22 86 -35 91 -49 8 -19 79 -20 114 0 24 14 22 14 -36 15 -48 0 -65 4 -79 20
-10 11 -24 20 -32 20 -18 0 -16 10 5 26 26 19 6 32 -87 54 -99 24 -121 35
-203 101 -66 54 -169 109 -203 109 -11 0 -46 13 -77 29 -32 15 -58 24 -58 19
0 -15 89 -66 128 -73 48 -9 136 -56 187 -100 l40 -34 -42 -1 c-56 0 -62 -16
-22 -50 l34 -28 -40 2 c-37 1 -40 -1 -40 -26 0 -17 -9 -34 -22 -43 -15 -11
-23 -26 -23 -46 0 -22 -5 -29 -19 -29 -37 0 -35 -23 3 -56 20 -18 33 -35 28
-38 -5 -3 -15 -26 -22 -51 -10 -37 -15 -43 -27 -33 -47 38 -77 138 -103 338
-11 83 -24 116 -88 230 -17 30 -34 73 -38 94 -6 34 -5 38 10 33 9 -4 65 -21
124 -39z m2352 -50 c0 -6 -6 -5 -15 2 -8 7 -15 14 -15 16 0 2 7 1 15 -2 8 -4
15 -11 15 -16z m-3411 -134 c57 -61 62 -68 54 -97 -11 -48 -8 -78 12 -120 16
-34 16 -43 5 -80 -20 -64 -30 -67 -30 -9 0 64 -21 107 -54 116 -15 4 -33 20
-42 39 -9 17 -38 53 -65 78 l-49 46 41 46 c22 26 47 47 54 47 7 0 40 -30 74
-66z m283 -155 c87 2 176 -18 198 -43 9 -12 6 -18 -19 -30 -29 -16 -58 -53
-48 -63 3 -2 19 4 37 14 119 69 145 71 123 12 -11 -29 -10 -34 11 -50 45 -36
60 -156 28 -238 -9 -24 -22 -46 -29 -48 -12 -4 -63 67 -63 89 0 20 -32 48 -56
48 -25 0 -64 -43 -64 -69 0 -31 30 -61 60 -61 20 0 35 -9 49 -29 12 -16 21
-33 21 -38 0 -22 -85 -56 -150 -61 l-67 -4 -7 63 c-4 35 -8 74 -8 87 0 30 75
127 132 171 93 70 104 80 98 87 -22 21 -201 -128 -230 -191 -14 -31 -22 -31
-42 -3 -24 35 -20 53 30 113 25 31 44 59 41 61 -3 3 -29 -22 -59 -56 -53 -60
-54 -60 -74 -41 -11 10 -40 31 -63 45 -45 29 -46 36 -15 98 18 36 18 45 -6 75
-11 14 -20 33 -20 41 0 12 4 12 21 -4 12 -10 24 -27 28 -37 6 -17 8 -17 34 3
34 27 34 43 2 68 -14 11 -25 23 -25 28 0 4 11 -3 25 -16 22 -20 33 -23 107
-21z m-120 -24 c0 -5 -5 -11 -11 -13 -6 -2 -11 4 -11 13 0 9 5 15 11 13 6 -2
11 -8 11 -13z m-147 -176 c-5 -23 0 -29 69 -62 57 -29 83 -49 110 -86 48 -65
66 -111 66 -166 l0 -46 -29 20 c-53 38 -222 98 -291 104 -61 5 -63 5 -35 -8
17 -8 38 -14 47 -15 50 -1 241 -88 304 -138 24 -19 34 -35 34 -54 0 -32 -7
-34 -57 -13 -55 23 -73 19 -40 -10 15 -13 27 -28 27 -34 0 -19 -87 -97 -134
-120 -35 -17 -68 -25 -110 -25 l-61 -1 -3 38 c-3 32 2 42 27 65 40 34 41 73 5
101 -30 23 -55 26 -85 10 -19 -10 -20 -17 -13 -89 3 -44 4 -86 0 -95 -5 -14
-8 -14 -36 0 -94 48 -163 156 -159 246 2 28 -2 54 -8 57 -5 4 -15 17 -21 28
-11 20 -8 23 33 33 24 6 68 11 96 11 68 0 53 21 -20 28 -33 3 -51 9 -51 17 0
26 67 101 125 141 51 34 62 47 70 82 6 23 16 47 23 54 9 9 12 1 12 -40 0 -51
1 -52 29 -52 40 0 55 22 48 71 -3 23 -3 49 1 57 9 23 33 -77 27 -109z m-55 26
c0 -8 -7 -15 -15 -15 -9 0 -12 6 -9 15 4 8 10 15 15 15 5 0 9 -7 9 -15z m6229
-214 c121 -169 276 -445 361 -641 18 -41 42 -97 55 -125 70 -155 234 -749 213
-770 -3 -3 -18 1 -34 10 -135 70 -271 27 -435 -136 -86 -85 -102 -107 -148
-201 -105 -215 -133 -440 -112 -902 24 -550 6 -831 -71 -1091 -16 -55 -31
-102 -33 -103 -11 -11 -132 84 -210 163 -93 95 -173 214 -181 269 -4 24 12 61
71 171 110 202 209 409 238 495 57 168 95 465 82 645 -5 64 -2 124 10 205 14
95 16 159 12 370 -4 140 -13 310 -21 378 -16 122 -100 469 -154 635 l-29 88
24 87 c111 398 114 405 222 511 l55 54 20 -26 c12 -13 41 -53 65 -86z m-4974
29 c3 -5 2 -10 -4 -10 -5 0 -13 5 -16 10 -3 6 -2 10 4 10 5 0 13 -4 16 -10z
m4412 -582 c-3 -8 -6 -5 -6 6 -1 11 2 17 5 13 3 -3 4 -12 1 -19z m-132 -348
c-10 -11 -20 -18 -23 -15 -3 3 3 14 13 25 10 11 20 18 23 15 3 -3 -3 -14 -13
-25z m-1796 -165 c56 -14 133 -37 170 -52 80 -31 198 -89 205 -101 2 -4 10
-91 16 -192 14 -237 34 -386 64 -491 14 -46 22 -86 20 -88 -12 -12 -99 23
-153 60 -34 23 -61 43 -61 44 0 1 20 15 45 30 59 38 67 59 12 34 -75 -33 -97
-27 -165 45 -33 36 -63 74 -67 85 -3 12 -10 21 -14 21 -7 0 -51 72 -51 84 0 4
5 4 12 0 7 -4 8 -3 4 5 -4 6 -12 9 -17 6 -11 -8 -61 104 -52 118 3 6 1 7 -5 3
-10 -6 -17 15 -11 27 1 1 -7 20 -18 42 -22 42 -59 183 -70 261 l-6 46 34 -17
c19 -9 61 -38 93 -63 33 -26 56 -41 52 -34 -8 13 4 16 20 5 5 -5 -2 2 -16 15
-14 12 -31 20 -38 17 -7 -3 -11 -1 -8 4 3 5 -12 21 -33 35 -44 31 -89 76 -75
76 5 0 56 -11 113 -25z m-114 -280 c14 -49 52 -143 84 -207 65 -130 65 -144 1
-39 -23 39 -48 75 -55 81 -7 6 -32 54 -55 107 l-42 95 7 117 8 116 13 -90 c8
-49 25 -130 39 -180z m-1021 61 c12 -48 13 -75 5 -142 -12 -98 1 -259 32 -398
11 -49 18 -91 16 -93 -7 -6 -46 145 -62 235 -21 119 -28 258 -20 366 4 54 8
96 10 94 2 -2 10 -30 19 -62z m985 -124 c42 -100 166 -283 247 -366 37 -37 59
-66 48 -62 -37 11 -127 26 -162 26 -33 0 -34 1 -20 23 8 12 17 32 20 44 5 17
-2 14 -31 -16 -26 -28 -52 -43 -96 -55 -33 -9 -75 -21 -93 -27 -30 -10 -64 -2
-35 8 7 2 10 10 8 16 -3 7 3 44 13 82 l17 70 70 10 c69 11 69 11 30 18 -22 4
-52 7 -68 7 -23 0 -27 3 -22 23 15 65 28 150 32 210 3 38 6 67 8 65 1 -2 17
-36 34 -76z m-1489 -174 c0 -4 4 -8 8 -8 5 0 17 -16 28 -36 10 -20 54 -73 96
-118 42 -45 73 -83 67 -84 -17 -6 -73 33 -96 68 -26 37 -30 26 -9 -25 l15 -34
-47 -6 c-26 -3 -65 -11 -87 -17 -80 -22 -149 -21 -193 1 -23 12 -44 21 -48 21
-14 0 32 -43 64 -59 l33 -17 -68 -47 c-38 -26 -74 -47 -81 -47 -32 0 10 180
60 261 19 30 41 70 50 89 52 116 78 181 89 223 l12 49 53 -103 c30 -56 54
-106 54 -111z m550 137 c40 -128 191 -389 313 -540 56 -70 177 -187 245 -238
31 -23 65 -49 75 -58 10 -9 33 -24 51 -34 32 -17 34 -22 41 -87 3 -38 13 -90
20 -116 16 -54 78 -141 133 -189 l36 -31 -39 -7 c-96 -18 -66 -41 39 -31 33 3
129 0 211 -8 83 -7 152 -12 153 -10 2 1 -18 9 -45 16 l-48 14 37 18 c77 37
131 111 163 221 23 78 16 233 -14 320 -58 166 -222 263 -382 225 -64 -15 -131
-52 -158 -87 l-20 -24 -20 45 c-38 83 -26 101 94 138 103 32 225 30 330 -6 88
-30 209 -100 252 -147 34 -36 79 -68 68 -48 -4 8 -18 28 -31 45 l-23 31 25 -5
c13 -2 21 -9 17 -15 -3 -5 -1 -7 5 -3 6 3 37 -9 68 -29 32 -19 60 -33 62 -31
2 3 -3 15 -12 28 -19 29 -71 171 -80 218 -7 33 -6 32 22 -16 16 -29 39 -65 50
-82 12 -16 22 -37 22 -46 0 -8 9 -40 21 -71 20 -53 20 -57 4 -137 -24 -117
-104 -333 -166 -444 -57 -103 -194 -275 -237 -299 -77 -41 77 5 188 57 143 66
169 81 241 135 l69 52 -16 -37 c-47 -111 -144 -365 -159 -417 -9 -33 -22 -89
-29 -125 l-12 -65 -59 -32 c-33 -18 -128 -58 -211 -89 l-152 -56 -5 -42 c-3
-22 -3 -68 0 -102 5 -59 7 -61 42 -74 l36 -13 -60 -17 c-123 -34 -274 -94
-394 -156 -68 -35 -126 -62 -128 -60 -3 2 -9 22 -13 43 -8 34 -7 41 20 68 l30
30 1 -25 c1 -25 1 -30 -9 -65 -5 -18 -4 -18 11 -6 14 11 17 32 17 107 0 51 -5
105 -10 120 -6 15 -9 29 -6 31 2 2 50 15 107 28 57 13 122 31 144 39 l40 16
-60 -6 c-33 -4 -103 -15 -155 -26 -203 -41 -249 -48 -370 -54 -227 -12 -416
39 -691 186 -251 134 -397 240 -458 331 -58 87 -74 145 -151 543 -11 60 -23
113 -26 117 -2 4 19 -5 47 -20 57 -32 97 -85 79 -106 -9 -10 -6 -14 12 -17 18
-2 23 -9 21 -31 -1 -20 3 -27 17 -27 24 0 35 31 16 46 -9 6 -16 19 -16 28 0 9
-7 16 -15 16 -8 0 -15 2 -15 4 0 2 -3 12 -7 22 -5 14 -3 16 12 10 14 -5 12 0
-7 17 -20 18 -31 48 -51 133 -26 111 -44 244 -32 244 3 0 24 -9 47 -21 25 -13
54 -19 73 -17 32 4 32 4 24 -32 -13 -55 -10 -190 5 -249 17 -60 48 -110 106
-167 22 -22 40 -42 40 -45 0 -4 -20 -10 -45 -13 -25 -4 -45 -11 -45 -17 0 -9
15 -13 34 -10 5 1 86 2 180 3 94 0 163 2 154 5 -24 6 -23 20 2 28 34 11 91 77
121 140 44 93 54 182 36 296 -18 116 -47 180 -109 240 -137 135 -348 89 -439
-96 -17 -35 -38 -66 -46 -69 -8 -3 -12 -2 -9 3 3 4 -6 18 -19 31 -13 12 -36
40 -51 61 l-26 38 27 35 c33 43 102 88 197 129 106 45 217 49 330 13 52 -16
100 -39 127 -61 47 -38 75 -47 46 -15 -11 12 17 2 81 -29 55 -27 110 -61 124
-76 14 -15 39 -36 55 -48 25 -17 22 -13 -13 27 -47 51 -92 137 -92 174 0 15
-4 21 -12 16 -6 -4 -8 -3 -4 4 3 6 -3 66 -14 134 -23 138 -39 419 -22 403 5
-5 15 -28 22 -50z m4175 -115 c60 -34 104 -86 137 -159 28 -61 22 -160 -11
-195 -27 -29 -95 -46 -183 -46 -81 0 -139 -28 -179 -87 -46 -67 -96 -180 -108
-248 -15 -75 -15 -432 0 -794 11 -298 8 -394 -22 -571 -21 -123 -95 -437 -109
-460 -7 -11 -35 0 -132 50 -68 34 -137 71 -154 81 l-31 19 29 82 c16 46 38
121 48 168 42 190 45 242 45 905 0 727 -2 697 88 904 63 141 120 214 253 319
101 81 223 93 329 32z m-5713 -45 c-2 -25 1 -80 8 -123 7 -42 14 -84 15 -92 1
-8 5 -22 8 -30 3 -8 11 -33 17 -55 22 -72 72 -179 112 -238 58 -86 201 -225
298 -290 47 -31 92 -62 100 -69 11 -9 23 -64 38 -177 31 -219 64 -346 121
-456 l46 -90 0 -160 c-1 -135 -4 -172 -23 -238 -26 -91 -84 -211 -119 -247
l-24 -24 12 29 c6 17 20 49 31 73 10 24 21 58 24 75 3 23 0 19 -12 -15 -9 -27
-20 -48 -24 -48 -4 0 -10 25 -14 55 -17 145 -105 340 -260 578 -94 143 -206
351 -206 380 0 9 -4 19 -10 22 -18 11 -11 -15 32 -122 l41 -104 -12 -97 c-13
-93 -44 -198 -82 -273 -22 -45 -106 -136 -115 -126 -4 4 -13 -2 -21 -13 -8
-11 -24 -25 -36 -31 -15 -8 -11 0 14 27 73 77 97 164 106 375 7 176 -7 340
-48 562 -52 281 -59 321 -59 353 0 31 1 31 61 37 34 3 65 11 69 17 5 7 13 9
20 5 9 -6 11 -4 6 4 -5 7 -15 10 -24 6 -18 -7 -92 3 -111 14 -31 19 -54 367
-32 464 7 30 44 87 57 87 1 0 -1 -20 -4 -45z m-77 -212 c0 -87 4 -184 8 -215
10 -67 3 -71 -43 -25 -72 72 -92 180 -48 265 25 48 76 132 81 132 1 0 2 -71 2
-157z m2445 137 c0 -6 -12 -53 -26 -105 -20 -71 -31 -96 -46 -101 -11 -3 -21
-4 -24 -2 -9 9 -35 160 -30 173 3 8 27 21 53 29 59 18 73 19 73 6z m1516 -75
c10 -25 -44 -103 -99 -144 -65 -49 -282 -183 -362 -224 -88 -44 -117 -49 -149
-23 -24 19 -78 135 -57 122 5 -3 12 -18 16 -33 3 -14 13 -36 22 -47 15 -20 15
-20 8 -1 -18 48 -28 93 -23 107 8 19 51 39 198 94 63 23 160 61 215 84 101 42
204 79 218 80 4 0 10 -7 13 -15z m-3212 -67 c-4 -7 -15 -44 -24 -83 l-17 -70
-8 48 c-6 42 -4 51 19 82 26 33 46 49 30 23z m-824 -223 c13 -21 44 -50 69
-66 l45 -29 -35 0 c-32 0 -121 39 -144 63 -7 7 -6 8 2 3 8 -4 10 10 6 53 -8
81 5 111 22 54 7 -23 23 -58 35 -78z m5956 -2 c9 -112 -10 -477 -35 -653 -39
-266 -162 -723 -244 -903 -15 -31 -39 -85 -53 -120 -53 -126 -226 -449 -200
-372 20 56 78 302 98 413 22 121 23 143 18 497 -9 711 -7 863 13 930 22 69 60
147 95 193 45 59 76 74 185 87 56 7 105 13 109 14 3 0 10 -38 14 -86z m-2676
6 c16 -30 5 -35 -25 -11 -17 14 -21 22 -13 25 22 9 27 7 38 -14z m-2443 2 c12
11 12 9 2 -15 -9 -19 -15 -23 -21 -14 -4 7 -7 20 -7 28 0 11 2 11 6 2 4 -10 8
-10 20 -1z m320 -18 c-4 -3 0 -15 9 -24 12 -13 15 -29 11 -54 -6 -36 -6 -36
24 -30 17 4 29 2 29 -3 0 -6 19 -5 50 3 37 10 50 10 50 2 0 -7 4 -6 10 3 7 12
12 11 27 -6 14 -16 23 -19 41 -13 12 5 22 11 22 15 0 3 -7 4 -15 0 -8 -3 -15
-1 -15 4 0 15 29 12 45 -3 8 -9 10 -19 4 -28 -5 -8 -9 -24 -9 -36 0 -28 -14
-29 -51 -2 -16 11 -29 16 -29 10 0 -5 9 -12 20 -16 11 -3 28 -17 39 -31 30
-38 44 -31 37 20 -9 64 10 66 24 3 22 -101 22 -96 -3 -89 -12 3 -25 9 -28 15
-4 5 -8 -5 -11 -22 -2 -17 -3 -29 0 -27 2 3 17 0 33 -6 27 -9 29 -14 29 -61 1
-166 -112 -307 -245 -307 -132 0 -260 134 -273 285 -4 57 -2 64 17 74 17 9 21
20 20 54 -1 37 -2 38 -8 13 -3 -16 -12 -31 -19 -32 -7 -1 -9 0 -4 2 5 3 7 15
5 27 -5 29 21 113 34 110 5 -1 8 8 6 20 -6 30 34 85 82 113 42 24 53 28 42 17z
m1499 -61 c-3 -23 0 -39 9 -49 8 -8 15 -10 15 -4 0 15 41 24 53 12 17 -17 41
-13 56 11 12 20 14 20 23 4 7 -13 18 -16 36 -12 15 3 21 3 15 0 -7 -3 -13 -10
-13 -16 0 -6 6 -5 15 2 9 7 14 19 11 26 -2 6 5 14 16 17 15 4 19 11 15 26 -3
12 -1 19 4 15 5 -3 9 -12 9 -20 0 -8 4 -12 10 -9 5 3 7 0 4 -9 -3 -8 -12 -12
-20 -9 -10 4 -14 -3 -13 -23 1 -22 3 -24 6 -8 4 19 7 21 32 11 26 -9 27 -13
20 -50 -7 -41 -3 -67 11 -67 4 0 7 27 7 60 0 52 -3 60 -19 60 -10 0 -18 5 -18
11 0 6 7 9 17 7 27 -5 62 -81 77 -165 5 -30 3 -33 -19 -33 -15 0 -26 -7 -30
-20 -9 -27 1 -40 31 -40 22 0 24 -4 24 -48 0 -116 -71 -237 -167 -283 -57 -28
-156 -23 -221 10 -99 51 -184 171 -186 266 -1 44 2 50 21 53 29 4 141 -53 175
-89 15 -16 22 -29 15 -29 -6 0 -1 -7 11 -16 22 -15 47 -11 36 7 -3 5 -9 7 -14
4 -4 -2 -13 8 -19 23 -7 17 -31 37 -65 55 -29 15 -79 44 -111 64 l-57 36 6 44
c3 24 14 63 24 86 l19 42 32 -65 c61 -121 149 -243 199 -277 57 -39 102 -56
50 -19 -56 39 -128 133 -128 165 0 19 -7 31 -23 38 -12 6 -31 28 -42 49 -11
22 -28 51 -37 65 -37 56 -39 76 -11 109 14 17 28 29 30 26 3 -3 12 1 20 9 12
13 17 13 40 -2 21 -14 24 -22 19 -51z m-1446 -2 c0 -5 -4 -10 -10 -10 -5 0
-10 5 -10 10 0 6 5 10 10 10 6 0 10 -4 10 -10z m3825 -380 c-20 -170 -45 -281
-85 -390 -28 -77 -268 -552 -291 -575 -5 -5 -9 8 -9 35 0 37 15 71 99 219 135
239 198 386 235 544 23 98 38 266 31 334 -5 47 -2 77 12 120 l18 58 3 -105 c2
-58 -4 -166 -13 -240z m-38 73 c-7 -151 -30 -258 -87 -408 -39 -105 -165 -351
-230 -452 l-31 -48 6 75 c20 255 105 544 201 690 27 41 69 119 94 172 25 54
47 98 49 98 2 0 1 -57 -2 -127z m-1497 -213 c0 -5 -4 -10 -10 -10 -5 0 -7 -6
-4 -13 6 -16 -43 -62 -131 -121 -38 -27 -59 -38 -45 -26 50 44 106 99 140 139
35 41 50 50 50 31z m1259 -92 c-60 -149 -100 -301 -119 -445 -19 -137 -8 -405
20 -513 29 -114 90 -235 151 -301 l50 -54 -34 55 c-80 129 -140 273 -152 367
l-6 48 30 -54 c57 -100 98 -148 235 -276 6 -6 27 -22 46 -35 19 -13 37 -27 40
-30 9 -12 144 -87 242 -134 117 -57 125 -72 77 -144 -62 -91 -181 -252 -186
-252 -10 0 -192 88 -205 99 -7 6 -51 39 -97 73 -105 78 -227 215 -298 335 -30
51 -56 93 -59 93 -2 0 9 -26 25 -57 15 -32 40 -101 55 -153 14 -52 31 -111 36
-130 33 -115 67 -353 81 -563 l11 -178 -23 -26 c-39 -42 -375 -303 -390 -303
-2 0 -3 44 -1 97 4 121 -8 204 -57 403 -54 215 -67 261 -108 375 -197 554
-218 642 -218 943 0 207 -8 220 -20 32 -8 -117 6 -279 37 -435 18 -94 52 -201
162 -507 55 -155 151 -522 171 -655 8 -54 15 -136 15 -183 l0 -85 -33 -20
c-127 -76 -111 -72 -229 -61 -58 6 -109 13 -111 16 -3 3 0 32 5 65 16 98 -7
479 -41 680 -14 82 -12 6 4 -160 8 -82 17 -244 20 -360 l6 -210 -48 52 c-110
118 -199 317 -202 453 -1 41 -4 91 -7 110 -6 32 -5 33 8 15 8 -11 27 -51 42
-88 16 -37 30 -66 33 -64 3 4 -22 77 -91 262 -14 38 -26 87 -26 107 0 30 -5
40 -29 54 -28 17 -30 21 -37 113 -21 282 24 749 78 797 10 10 18 21 18 26 0 5
16 23 35 41 19 17 35 37 35 44 0 7 6 16 14 20 7 4 57 57 111 116 54 60 101
105 105 100 4 -4 13 -26 20 -48 18 -57 82 -182 122 -236 66 -93 230 -259 302
-306 39 -26 77 -53 84 -60 13 -12 23 -16 148 -47 83 -21 88 -20 29 11 -27 14
-63 37 -78 52 -33 30 -114 184 -122 232 -3 17 -11 41 -18 53 -8 14 -12 68 -12
156 1 162 24 265 92 408 33 70 56 103 96 139 28 26 81 78 117 115 36 37 66 68
67 68 2 0 -7 -24 -18 -52z m-727 -608 c11 -36 32 -87 45 -115 l24 -50 -26 30
c-25 29 -115 205 -130 253 -5 18 -1 30 16 49 l24 24 13 -63 c7 -35 22 -92 34
-128z m-2921 -57 c70 -47 296 -175 394 -222 104 -50 269 -95 406 -111 97 -11
293 -1 384 20 69 16 59 -5 -27 -56 -140 -82 -188 -138 -188 -218 0 -19 -5 -38
-10 -41 -6 -4 -20 -25 -31 -48 -12 -23 -39 -61 -59 -83 -21 -23 -46 -57 -56
-75 l-18 -34 -8 35 c-4 22 -5 6 -3 -40 4 -61 1 -82 -15 -110 l-19 -35 -1 86
c0 47 11 175 25 285 27 217 27 220 20 213 -14 -14 -66 -443 -63 -524 2 -83 0
-93 -25 -133 -44 -69 -48 -85 -35 -172 6 -44 15 -80 19 -80 5 0 6 -6 3 -13 -6
-17 21 -41 36 -32 5 3 10 18 10 32 0 21 -3 23 -14 14 -12 -10 -13 -8 -9 8 3
12 1 21 -5 21 -6 0 -7 13 -1 37 6 29 29 58 101 128 113 109 252 229 334 289
l61 44 42 -18 c22 -11 41 -25 41 -32 0 -7 -14 -65 -32 -128 l-32 -115 -1 -270
c0 -166 -5 -285 -12 -310 -6 -22 -14 -52 -17 -67 l-6 -28 -133 -1 c-187 -1
-241 -9 -265 -39 -70 -89 -78 -91 -62 -14 39 186 42 216 30 317 -15 130 -13
126 -58 116 -51 -12 -103 -11 -140 2 l-32 11 48 53 c26 30 55 69 65 87 l18 33
-22 -30 c-13 -16 -47 -54 -76 -84 -51 -52 -53 -56 -43 -85 14 -41 46 -73 86
-86 19 -7 34 -16 34 -21 0 -6 5 -7 11 -3 8 4 9 -1 4 -17 -22 -69 -35 -128 -34
-159 1 -26 3 -29 6 -10 5 30 51 227 59 254 4 11 2 16 -4 12 -5 -3 -12 -19 -16
-36 l-6 -31 -39 20 c-22 12 -49 35 -62 52 l-22 31 24 -8 c29 -11 116 -10 145
0 20 7 23 3 33 -44 14 -64 14 -103 1 -95 -7 4 -7 -3 0 -20 13 -35 13 -72 0
-59 -6 6 -12 34 -15 64 -4 51 -26 98 -25 54 2 -49 27 -139 40 -136 13 3 14 4
-15 -137 -9 -45 -14 -93 -11 -106 6 -24 103 -112 112 -102 3 3 -13 22 -35 42
-23 21 -41 42 -41 49 0 6 18 31 40 56 l39 45 3 -65 c4 -126 6 -146 24 -285 21
-154 22 -213 9 -324 l-8 -73 -91 7 c-142 10 -218 23 -227 37 -19 29 -7 129 37
307 55 226 54 222 63 197 7 -19 8 -18 14 4 3 13 2 29 -4 36 -5 7 -14 56 -19
111 l-8 98 1 -105 c1 -87 -3 -125 -27 -218 -17 -61 -32 -112 -35 -112 -8 0
-57 103 -53 109 2 2 -1 7 -7 11 -21 12 -60 200 -71 333 -14 175 -1 473 31 682
22 144 50 283 63 311 7 16 33 79 57 141 24 61 46 110 49 108 3 -2 7 5 7 16 3
37 -13 10 -57 -93 -24 -57 -47 -108 -52 -114 -13 -17 -123 -338 -182 -532
-103 -338 -139 -526 -140 -742 -1 -132 2 -168 23 -248 27 -108 38 -118 16 -16
-33 157 -28 363 14 579 l17 90 8 -95 c4 -52 11 -115 16 -140 5 -27 4 -104 -3
-196 -8 -108 -8 -177 0 -240 9 -79 17 -114 51 -230 l10 -31 -47 8 c-25 5 -76
16 -113 25 -66 16 -69 18 -107 74 -66 99 -136 325 -162 520 -13 98 -7 348 11
430 7 33 20 62 33 73 108 92 141 121 199 180 114 114 176 220 251 427 66 182
68 210 3 41 -65 -168 -89 -217 -161 -326 -61 -92 -173 -203 -340 -337 -30 -23
-54 -47 -55 -51 0 -5 14 3 31 18 17 14 33 24 35 22 2 -2 -3 -37 -10 -78 -44
-236 -24 -467 66 -739 36 -111 57 -155 93 -199 30 -35 26 -36 -41 -19 -61 17
-68 34 -100 245 -29 198 -36 231 -70 327 -14 41 -24 82 -22 92 4 22 -32 23
-101 5 -23 -7 -44 -11 -46 -9 -2 2 -4 70 -6 151 -4 136 -2 149 15 159 17 10
130 7 140 -3 3 -2 1 -22 -4 -44 -5 -22 -9 -80 -9 -130 l2 -90 12 117 c7 64 16
122 20 128 9 15 -13 40 -36 40 -28 0 -30 14 -6 58 21 39 30 52 81 112 l21 25
-29 -25 c-47 -40 -73 -72 -96 -117 -17 -33 -27 -43 -46 -43 -14 0 -34 -5 -44
-10 -23 -12 -40 10 -40 52 0 6 -2 9 -5 6 -10 -10 -134 124 -153 166 -43 92
-36 177 25 321 19 44 61 150 94 235 33 85 80 196 105 247 70 143 86 223 82
401 l-3 149 66 -57 c36 -31 86 -70 110 -87z m2125 -111 c-8 -93 6 -267 27
-348 l13 -49 -46 22 c-25 12 -50 23 -55 23 -6 0 -11 8 -12 18 0 9 -8 49 -17
87 -8 39 -16 106 -17 150 l-1 80 -10 -53 c-6 -34 -6 -69 1 -99 5 -26 9 -48 8
-49 -1 -1 -16 1 -34 3 -24 4 -34 12 -42 33 -13 38 -36 49 -132 62 l-80 12 3
30 c2 22 10 31 28 37 108 31 289 93 319 109 20 10 40 19 45 20 5 0 6 -39 2
-88z m332 -139 c-6 -21 -13 -45 -16 -53 -3 -8 -7 -26 -9 -40 -2 -14 -8 -52
-13 -85 -5 -33 -15 -138 -22 -233 -12 -167 -8 -237 19 -365 l6 -29 -42 21
c-24 13 -41 29 -41 39 0 9 -15 77 -33 149 -32 132 -32 133 -9 105 22 -26 22
-25 -3 24 -23 45 -26 59 -21 116 7 85 28 146 84 241 41 69 98 147 107 147 2 0
-1 -17 -7 -37z m-652 -63 c18 0 18 -11 1 -34 -13 -17 -15 -17 -45 -2 -18 9
-32 21 -32 26 0 10 30 19 48 14 8 -2 20 -4 28 -4z m331 -246 c-3 -3 -12 -4
-19 -1 -8 3 -5 6 6 6 11 1 17 -2 13 -5z m64 -36 c12 -24 27 -50 34 -58 16 -19
55 -167 55 -207 0 -17 4 -33 9 -35 6 -1 22 -61 36 -133 15 -71 28 -132 31
-134 10 -11 -91 -63 -149 -76 -102 -24 -109 -22 -135 38 -37 84 -93 137 -123
115 -11 -8 -11 -9 3 -5 9 3 27 -3 41 -13 24 -19 93 -138 84 -146 -8 -8 -143
26 -163 41 -16 11 -20 32 -25 137 l-5 123 -2 -113 c-2 -82 -5 -111 -13 -106
-16 9 -5 253 15 351 11 55 24 85 54 125 50 67 98 118 110 118 5 0 -5 -15 -23
-34 -17 -19 -52 -63 -77 -98 -44 -61 -45 -66 -51 -153 -4 -66 -3 -76 3 -40 4
28 9 67 9 88 1 31 14 56 68 128 59 80 72 91 110 101 24 6 46 14 49 19 12 20
35 6 55 -33z m-561 18 c0 -3 -38 -25 -84 -50 -64 -35 -93 -46 -127 -46 l-44 1
60 25 c45 20 167 66 193 73 1 1 2 -1 2 -3z m-17 -85 c10 -40 4 -61 -18 -61 -9
0 -13 5 -10 10 3 6 1 10 -4 10 -6 0 -11 -8 -11 -19 0 -10 -7 -24 -16 -32 -21
-18 -33 2 -30 52 2 47 10 56 32 38 16 -13 17 -12 12 8 -6 21 6 34 27 29 5 -1
13 -17 18 -35z m1910 -102 c26 -31 47 -63 47 -72 0 -23 47 -154 76 -209 13
-27 21 -48 17 -48 -5 0 -3 -4 2 -8 6 -4 32 -41 58 -83 26 -42 64 -93 84 -113
l37 -36 -120 -121 -121 -121 -6 149 c-4 81 -10 159 -13 173 -4 15 10 1 33 -35
22 -34 60 -76 84 -95 l44 -35 -53 60 c-73 83 -116 177 -137 300 -19 119 -48
239 -76 315 -11 30 -16 51 -11 45 4 -5 29 -35 55 -66z m-1785 35 c19 -5 20 -9
10 -22 -14 -17 -15 -17 35 3 13 5 16 3 11 -8 -3 -8 -1 -18 5 -22 6 -3 11 -20
11 -36 0 -60 -90 -109 -104 -57 -4 17 4 33 32 63 20 22 26 31 12 20 -14 -11
-33 -29 -42 -40 -17 -19 -18 -19 -18 -1 0 11 8 29 17 40 16 19 16 19 -7 -1
-19 -16 -29 -19 -42 -12 -23 13 -23 21 3 53 21 26 36 30 77 20z m-132 -26 c4
-7 3 -8 -5 -4 -6 4 -14 0 -17 -9 -9 -23 3 -30 23 -14 10 8 14 9 10 2 -5 -8 4
-18 22 -28 32 -16 51 -43 51 -70 0 -14 -3 -14 -30 0 -16 8 -35 15 -42 15 -7 0
8 -10 32 -22 43 -23 71 -55 34 -41 -11 4 -15 2 -11 -4 9 -15 -24 -42 -61 -49
-34 -7 -44 10 -21 33 14 14 3 33 -18 33 -11 0 -14 -8 -11 -30 3 -16 0 -30 -6
-30 -18 0 -56 43 -56 65 0 11 -5 26 -12 33 -9 9 -3 12 28 13 23 1 30 4 17 6
-31 6 -29 18 7 45 17 12 30 27 30 33 0 9 19 35 26 35 2 0 6 -5 10 -12z m-349
-47 c8 -10 12 -12 13 -3 0 7 14 12 34 12 l34 0 -21 -24 c-14 -16 -24 -21 -29
-13 -3 6 -15 12 -25 13 -10 1 -31 5 -48 8 -27 6 -42 -3 -140 -78 -137 -106
-347 -300 -371 -343 -10 -17 -21 -30 -25 -28 -13 8 -17 60 -7 80 16 29 139
165 150 165 5 0 6 -6 2 -12 -9 -15 15 3 60 46 17 16 76 62 131 103 55 40 109
80 120 89 25 18 104 9 122 -15z m181 -42 c19 -17 38 -44 43 -61 8 -29 5 -28
-39 21 -46 52 -48 53 -82 42 l-35 -11 36 4 c34 4 59 -7 59 -27 0 -4 -6 -5 -12
-1 -8 4 -10 3 -5 -2 5 -5 14 -9 20 -9 7 -1 11 -6 10 -13 -2 -7 2 -11 8 -9 6 1
14 -4 17 -12 3 -9 0 -11 -9 -6 -8 5 -11 4 -6 -1 5 -5 10 -7 11 -4 2 3 10 -1
19 -9 10 -7 17 -10 17 -6 0 4 14 -5 31 -19 17 -14 37 -26 46 -26 11 0 14 -6 9
-22 -3 -13 -6 -30 -6 -38 0 -11 -4 -9 -12 5 -33 57 -60 96 -65 92 -2 -3 3 -17
12 -31 9 -14 14 -30 10 -36 -4 -6 -1 -9 7 -8 7 2 12 -5 12 -14 -1 -10 3 -15 8
-12 7 4 9 -27 7 -87 -2 -52 0 -99 4 -106 4 -6 4 -19 0 -29 -4 -10 -2 -15 4
-11 5 3 19 -14 31 -38 23 -48 29 -50 80 -36 31 9 33 9 27 -12 -4 -13 -3 -17 2
-10 6 8 14 3 28 -17 33 -49 55 -55 110 -31 26 12 49 21 51 21 1 0 13 -24 27
-53 25 -54 79 -116 131 -147 l28 -18 -28 -18 c-16 -10 -31 -19 -33 -21 -2 -1
2 -9 8 -17 10 -12 2 -33 -49 -115 -33 -54 -67 -105 -76 -111 -10 -9 -35 -11
-87 -6 -97 10 -151 24 -217 56 -79 39 -199 78 -299 96 l-87 16 13 61 c7 34 13
78 14 97 l2 35 6 -35 c7 -36 6 243 -2 387 -2 53 0 80 6 76 6 -4 8 1 3 12 -10
26 4 91 16 73 7 -9 8 -6 4 12 -8 35 16 147 26 123 6 -13 7 -10 5 12 -2 29 -1
30 38 28 l40 -2 -34 10 c-37 11 -35 18 12 36 45 16 48 16 85 -18z m2300 -128
l33 -23 -28 -30 c-52 -55 -59 -54 -89 4 -25 50 -74 172 -74 185 0 3 28 -21 63
-53 34 -33 77 -70 95 -83z m-3287 7 c-41 -208 -66 -577 -51 -768 15 -207 47
-323 114 -425 l37 -54 -26 -90 c-27 -96 -31 -153 -15 -196 l10 -26 -47 7 c-92
14 -95 15 -120 82 -34 92 -53 219 -52 351 0 97 14 235 18 179 2 -37 65 -207
98 -266 35 -63 92 -136 100 -128 2 2 -11 26 -30 53 -105 147 -186 408 -203
653 -7 107 1 144 113 508 56 181 75 223 54 120z m1279 8 c0 -24 3 -52 6 -61 5
-13 2 -16 -12 -13 -13 2 -21 15 -25 43 -4 22 -3 42 2 43 5 2 9 10 9 18 0 8 5
14 10 14 6 0 10 -20 10 -44z m-111 -76 c-2 -21 0 -42 4 -46 14 -14 6 -31 -20
-43 -21 -10 -28 -9 -34 1 -14 22 -10 29 15 22 13 -3 27 -1 31 6 4 7 0 10 -11
8 -13 -2 -19 3 -18 15 3 71 5 77 20 77 12 0 15 -9 13 -40z m55 -12 c40 -50 41
-51 43 -76 4 -36 39 -105 64 -127 l23 -20 -22 32 c-23 33 -66 123 -60 126 1 1
13 7 24 14 19 10 27 6 75 -43 38 -39 55 -50 62 -41 5 7 6 3 2 -10 -4 -14 -2
-23 4 -23 13 0 10 -22 -4 -32 -5 -4 -13 -2 -18 5 -6 8 -7 8 -4 -3 2 -10 -8
-19 -32 -27 l-36 -12 35 5 c44 7 83 31 74 46 -5 8 0 9 17 4 113 -34 138 -38
221 -33 69 3 100 10 144 32 58 29 124 80 124 97 0 5 -7 2 -16 -6 -8 -9 -19
-16 -23 -16 -8 0 -32 112 -25 119 1 2 14 -6 28 -17 14 -10 22 -22 18 -26 -3
-4 1 -4 11 0 12 4 17 1 18 -12 0 -11 3 -14 5 -7 10 24 34 1 34 -33 0 -19 7
-51 15 -71 20 -48 13 -53 -13 -8 -12 19 -25 35 -30 35 -4 0 -18 -21 -31 -47
-12 -27 -43 -80 -67 -119 -50 -81 -124 -226 -124 -243 0 -6 -11 -11 -25 -11
-15 0 -40 -7 -57 -16 -17 -9 -40 -13 -55 -9 -41 10 -111 84 -144 151 -34 68
-45 74 -93 49 -44 -23 -61 -18 -105 32 -40 45 -42 46 -76 36 -30 -10 -36 -8
-47 11 -26 41 -37 75 -44 135 -6 59 -6 61 17 61 46 1 61 22 53 79 -8 60 3 65
40 19z m2163 3 c27 -16 78 -42 115 -57 l67 -27 -37 -46 c-20 -25 -58 -69 -84
-97 l-47 -52 -34 42 c-38 46 -130 187 -125 191 20 18 91 75 94 75 2 0 25 -13
51 -29z m-2077 -10 c0 -30 -22 -43 -42 -24 -26 24 -22 38 12 39 22 1 30 -3 30
-15z m701 -182 c30 -61 49 -161 49 -274 0 -58 4 -94 9 -87 6 9 12 -2 20 -35
19 -74 74 -181 133 -256 29 -38 62 -80 73 -95 11 -15 29 -28 40 -29 11 -2 47
-5 80 -9 115 -11 115 -11 50 -51 -72 -43 -228 -122 -312 -157 -35 -14 -86 -37
-115 -50 -91 -41 -92 -41 -126 1 -65 83 -111 214 -131 371 -11 89 -26 112 -18
27 l7 -60 -24 55 c-18 41 -23 68 -21 105 4 46 3 45 -5 -10 -34 -210 -43 -238
-78 -264 l-27 -19 2 67 1 66 -9 -70 c-5 -38 -10 -117 -11 -175 -3 -102 -2
-108 29 -167 l32 -62 -147 -35 c-200 -47 -277 -62 -412 -81 -162 -21 -520 -40
-612 -31 l-77 8 5 46 c3 26 10 71 15 101 5 33 5 68 0 90 -14 52 -41 311 -44
416 l-2 90 115 6 c63 4 145 7 183 8 52 1 67 4 67 16 0 8 6 15 14 15 29 0 243
-58 286 -78 152 -69 205 -85 321 -96 72 -7 90 6 157 114 l49 81 7 -41 c9 -57
34 -128 54 -151 9 -11 20 -29 24 -42 l6 -22 1 23 c1 13 -9 37 -20 54 -27 37
-59 138 -59 184 0 33 1 33 26 22 24 -11 29 -9 51 16 21 25 27 27 49 17 33 -15
34 -14 34 10 0 17 4 20 23 15 66 -20 85 -19 97 4 10 18 14 20 22 9 8 -11 8
-10 4 4 -3 10 -6 23 -6 28 0 5 -15 10 -32 10 -18 1 -46 4 -61 8 l-28 6 39 80
c22 45 60 114 84 155 25 41 55 94 67 118 12 23 23 42 26 42 3 0 14 -18 26 -41z
m-2845 -184 c-28 -37 -104 -98 -183 -147 -72 -45 -210 -168 -257 -229 -38 -49
-96 -159 -96 -180 1 -8 14 12 31 44 16 31 34 57 41 57 6 0 8 3 5 6 -11 12 55
93 135 165 43 39 78 69 78 66 0 -3 -14 -34 -30 -69 -42 -90 -72 -235 -68 -329
3 -65 1 -76 -12 -71 -8 3 -64 34 -123 70 -82 50 -106 69 -102 81 4 9 22 58 40
110 50 139 107 229 235 373 63 71 133 150 155 176 l40 47 67 -70 66 -70 -22
-30z m55 -185 c6 -171 6 -185 -14 -238 -18 -49 -22 -79 -22 -202 0 -124 4
-153 22 -203 12 -31 19 -56 15 -54 -11 6 -72 33 -152 67 -41 18 -110 50 -152
71 -76 38 -77 39 -84 84 -12 83 23 273 71 380 14 32 23 60 21 62 -6 7 49 52
114 95 31 19 78 58 105 85 28 27 54 46 59 42 5 -5 12 -90 17 -189z m2519 -56
c0 -16 -2 -16 -24 -8 -12 5 -13 9 -3 19 14 15 27 10 27 -11z m-2336 -214 c32
-102 33 -106 61 -297 14 -93 28 -181 32 -197 5 -24 3 -28 -9 -23 -9 3 -34 11
-57 18 -22 6 -38 15 -36 20 3 4 -3 5 -14 2 -11 -3 -27 4 -39 17 -24 26 -72
150 -72 186 0 13 -4 24 -9 24 -9 0 2 -73 19 -125 5 -16 10 -34 10 -38 -1 -4 6
-15 15 -24 22 -21 14 -25 -22 -13 -27 10 -33 20 -59 103 -36 120 -39 255 -5
365 12 39 24 72 26 72 2 0 10 2 17 5 20 8 44 -53 58 -150 13 -83 33 -145 58
-180 l14 -20 -7 20 c-28 78 -44 333 -22 347 8 5 13 0 15 -15 2 -12 14 -56 26
-97z m-65 33 l-1 -78 -12 55 c-6 30 -15 61 -19 68 -10 15 0 32 19 32 11 0 14
-16 13 -77z m2406 -73 c10 -30 21 -48 27 -44 6 4 9 3 5 -2 -8 -13 37 -174 66
-237 13 -29 38 -69 56 -89 l32 -37 -127 -41 c-141 -46 -129 -48 -170 35 -20
42 -24 65 -24 141 l0 91 39 31 c34 28 40 38 51 99 13 77 20 103 25 103 2 0 11
-23 20 -50z"/>
<path d="M1478 4474 c-57 -30 -67 -113 -20 -165 74 -83 208 2 172 110 -21 64
-91 89 -152 55z m111 -20 c60 -50 30 -148 -49 -160 -94 -14 -135 125 -49 168
46 24 62 23 98 -8z"/>
<path d="M1281 4343 c-54 -22 -80 -80 -61 -137 32 -97 167 -83 186 20 7 40
-10 90 -37 104 -30 17 -33 11 -5 -11 22 -17 26 -28 26 -69 0 -93 -94 -130
-144 -58 -36 51 -6 129 57 147 19 5 24 9 12 9 -11 0 -26 -2 -34 -5z"/>
<path d="M1718 4343 c7 -3 16 -2 19 1 4 3 -2 6 -13 5 -11 0 -14 -3 -6 -6z"/>
<path d="M1807 4265 c5 -39 2 -47 -25 -75 -34 -34 -54 -37 -96 -15 -16 9 -31
13 -33 11 -9 -8 56 -36 82 -36 16 0 38 12 56 29 23 24 29 38 29 75 0 24 -4 47
-9 50 -5 3 -6 -14 -4 -39z"/>
<path d="M1455 4140 c-17 -5 -59 -27 -95 -49 -115 -69 -142 -168 -66 -238 21
-19 46 -33 61 -33 14 0 39 -10 55 -22 21 -15 43 -21 77 -20 42 0 52 5 84 40
73 78 91 232 35 297 -19 22 -34 28 -72 31 -27 2 -63 -1 -79 -6z m122 -12 c22
-2 43 -64 43 -125 -1 -79 -34 -160 -79 -190 -42 -28 -90 -30 -119 -3 -12 11
-33 20 -47 20 -92 0 -141 116 -79 189 51 61 180 124 234 115 19 -3 40 -6 47
-6z"/>
<path d="M1720 4078 c-11 -12 -20 -29 -19 -37 0 -14 1 -14 6 -1 15 40 76 63
102 38 10 -11 11 -10 6 5 -10 25 -69 23 -95 -5z"/>
<path d="M2094 3397 c0 -51 -13 -86 -35 -98 -45 -24 -81 8 -92 81 -3 21 -5 22
-11 7 -29 -63 60 -136 115 -94 34 26 51 93 31 124 -5 8 -8 0 -8 -20z"/>
<path d="M1865 3350 c37 -72 1 -159 -66 -160 -28 0 -54 23 -62 55 -4 16 -5 15
-6 -6 -1 -30 36 -69 65 -69 79 2 136 126 85 188 -27 31 -34 28 -16 -8z"/>
<path d="M2150 3260 c-26 -26 -34 -62 -22 -97 8 -26 9 -25 9 15 0 61 30 91 73
75 33 -12 41 0 11 17 -29 15 -49 12 -71 -10z"/>
<path d="M1945 3136 c-35 -16 -64 -46 -69 -72 -2 -11 -11 -47 -20 -80 -31
-118 -18 -198 40 -243 31 -25 91 -28 120 -6 10 8 35 15 54 15 69 0 127 55 137
129 10 77 -87 221 -174 257 -39 17 -50 17 -88 0z m113 -33 c86 -65 132 -137
135 -212 2 -67 -48 -120 -123 -127 -23 -2 -51 -11 -63 -19 -35 -24 -72 -18
-110 18 -46 43 -56 103 -33 190 9 34 18 76 20 92 2 17 9 29 15 28 5 -2 8 3 5
11 -3 7 2 19 11 26 8 7 15 10 15 7 0 -4 10 -2 23 3 39 15 69 11 105 -17z"/>
<path d="M1596 3094 c-11 -29 -6 -79 10 -102 18 -26 61 -29 90 -6 18 14 18 15
-4 4 -55 -27 -98 14 -89 81 5 41 3 49 -7 23z"/>
<path d="M2042 2344 c-46 -32 -16 -96 36 -78 37 13 53 59 26 79 -25 19 -35 18
-62 -1z m56 -31 c-2 -22 -9 -29 -31 -31 -18 -2 -29 2 -33 12 -9 22 14 46 43
46 21 0 24 -4 21 -27z"/>
<path d="M1918 2338 c-24 -20 -28 -44 -12 -67 28 -40 94 -17 94 33 0 42 -47
61 -82 34z m60 -14 c14 -25 3 -53 -24 -60 -41 -10 -56 15 -34 57 13 23 46 25
58 3z"/>
<path d="M2122 2250 c-15 -25 -4 -27 14 -2 11 14 16 15 33 5 17 -11 19 -10 15
2 -9 22 -47 18 -62 -5z"/>
<path d="M1860 2211 c-21 -17 -23 -23 -15 -48 19 -52 95 -38 95 18 0 22 -6 32
-26 39 -31 12 -24 13 -54 -9z m59 -20 c8 -14 6 -22 -8 -35 -22 -20 -26 -20
-45 0 -12 12 -13 20 -6 35 14 24 46 25 59 0z"/>
<path d="M1998 2203 c-25 -29 -58 -100 -58 -127 0 -28 24 -56 48 -56 42 0 117
37 130 63 36 75 -69 178 -120 120z m91 -29 c12 -15 21 -41 21 -60 0 -43 -32
-65 -97 -67 l-48 -2 -3 39 c-5 54 37 116 77 116 20 0 36 -9 50 -26z"/>
<path d="M2428 2085 c-9 -21 -9 -29 4 -42 20 -19 63 -11 72 13 20 52 -53 80
-76 29z m46 9 c21 -8 21 -40 0 -48 -25 -10 -46 12 -33 35 11 21 11 21 33 13z"/>
<path d="M2550 2049 c-7 -11 -10 -22 -8 -23 2 -1 12 -8 23 -16 18 -14 19 -14
6 2 -18 24 -7 51 19 43 11 -4 20 -2 20 4 0 20 -49 12 -60 -10z"/>
<path d="M2344 2014 c-18 -15 -18 -15 3 -5 31 16 53 4 53 -29 0 -49 -68 -50
-71 -1 0 9 -3 11 -5 4 -9 -21 16 -53 41 -53 41 0 69 44 47 76 -13 20 -47 25
-68 8z"/>
<path d="M2493 1965 c-37 -26 -44 -48 -32 -104 12 -56 37 -81 81 -81 24 0 49
16 101 66 33 33 20 77 -32 103 -56 29 -93 34 -118 16z m116 -33 c50 -37 34
-89 -41 -128 -21 -11 -32 -12 -52 -3 -43 20 -61 106 -29 142 22 24 83 18 122
-11z"/>
<path d="M2316 1871 c-19 -21 -13 -48 14 -56 39 -12 75 30 50 60 -17 20 -44
19 -64 -4z m58 0 c11 -18 -6 -41 -30 -41 -17 0 -24 6 -24 18 0 10 3 22 7 25 9
10 41 8 47 -2z"/>
<path d="M4463 7701 c-45 -21 -88 -77 -97 -126 -4 -16 -3 -23 0 -15 23 52 66
98 113 120 48 22 57 23 117 13 66 -12 133 -41 214 -96 l45 -30 -34 36 c-19 20
-66 53 -105 73 -89 47 -186 57 -253 25z"/>
<path d="M5102 7285 c34 -81 125 -245 135 -245 6 0 -116 232 -129 245 -7 7 -9
7 -6 0z"/>
<path d="M7588 6915 c-35 -24 -113 -62 -211 -104 -46 -20 -84 -55 -119 -112
-34 -55 -55 -61 -238 -69 -175 -7 -200 -14 -200 -51 0 -11 -7 -19 -15 -19 -9
0 -18 -6 -21 -14 -3 -8 -11 -13 -18 -10 -21 8 -69 -15 -106 -51 -19 -18 -62
-44 -95 -57 -51 -20 -72 -23 -135 -18 l-74 5 -54 95 c-57 101 -132 220 -139
220 -5 0 13 -34 52 -95 47 -74 167 -305 218 -420 58 -131 147 -390 149 -432 1
-18 5 -33 11 -33 5 0 6 -8 3 -17 -4 -9 -2 -19 4 -23 6 -4 12 -23 13 -43 1 -20
5 -37 8 -37 9 0 35 -146 53 -295 13 -103 22 -238 40 -610 2 -38 2 63 0 225 -3
272 -7 337 -40 561 l-6 47 60 42 c34 24 59 47 56 51 -5 8 -72 -29 -106 -58
-19 -17 -20 -14 -53 132 -21 92 -98 317 -147 430 -22 50 -42 96 -45 103 -3 7
3 12 14 12 31 0 53 32 53 78 0 35 3 42 19 42 37 0 115 41 163 86 26 24 53 45
60 46 21 2 32 5 48 11 8 3 24 7 35 9 13 2 21 12 23 31 3 26 5 27 67 27 55 0
74 -6 146 -42 l82 -42 -34 -14 c-19 -8 -44 -14 -57 -14 -21 0 -20 -3 11 -24
49 -33 71 -85 62 -143 -12 -75 -4 -139 22 -179 21 -34 26 -21 8 21 -19 46 -19
44 10 51 35 9 33 36 -4 36 l-29 0 10 46 c14 64 3 109 -37 148 l-34 34 64 7
c36 4 65 11 65 15 0 10 -141 87 -178 97 -19 6 4 10 73 13 119 7 143 19 201 99
42 59 49 63 234 151 93 44 120 60 120 71 0 16 -24 10 -62 -16z m-1124 -536
c18 -17 10 -71 -14 -91 l-22 -18 -29 61 c-16 33 -29 62 -29 64 0 6 85 -8 94
-16z m696 -143 c0 -11 -19 -15 -25 -6 -3 5 1 10 9 10 9 0 16 -2 16 -4z"/>
<path d="M5314 6795 c14 -39 46 -159 67 -253 12 -56 24 -100 26 -98 13 12 -78
366 -93 366 -4 0 -3 -7 0 -15z"/>
<path d="M4702 6435 c0 -27 4 -63 8 -80 7 -29 8 -28 8 10 1 22 -3 58 -7 80
l-9 40 0 -50z"/>
<path d="M5411 6414 c0 -11 3 -14 6 -6 3 7 2 16 -1 19 -3 4 -6 -2 -5 -13z"/>
<path d="M6685 6385 c76 -17 100 -17 55 0 -19 7 -53 13 -75 13 -37 0 -35 -1
20 -13z"/>
<path d="M6623 6369 c71 -17 172 -97 260 -209 33 -41 62 -77 64 -80 3 -3 -8
19 -23 49 -37 70 -166 201 -225 229 -25 12 -61 22 -80 21 l-34 -1 38 -9z"/>
<path d="M6788 6363 c7 -3 16 -2 19 1 4 3 -2 6 -13 5 -11 0 -14 -3 -6 -6z"/>
<path d="M6530 6314 c-6 -14 -10 -40 -9 -57 1 -30 2 -29 11 11 5 23 13 42 17
42 5 0 34 -34 66 -75 31 -41 59 -75 61 -75 8 0 -70 127 -94 153 -32 34 -40 34
-52 1z"/>
<path d="M4972 6300 c0 -19 2 -27 5 -17 2 9 2 25 0 35 -3 9 -5 1 -5 -18z"/>
<path d="M4721 6294 c0 -11 3 -14 6 -6 3 7 2 16 -1 19 -3 4 -6 -2 -5 -13z"/>
<path d="M5481 6114 c0 -11 3 -14 6 -6 3 7 2 16 -1 19 -3 4 -6 -2 -5 -13z"/>
<path d="M7010 5548 c-1 -61 65 -299 113 -409 14 -30 39 -112 57 -184 30 -114
34 -146 34 -260 0 -117 -4 -143 -36 -267 -20 -75 -52 -176 -72 -223 -39 -96
-29 -96 39 -1 157 221 207 354 185 493 -15 92 -33 139 -117 313 -87 179 -134
300 -174 455 -15 61 -28 98 -29 83z m251 -705 c73 -187 66 -315 -27 -478 -32
-57 -73 -116 -74 -105 0 3 9 34 20 70 69 222 80 413 35 593 -15 58 5 23 46
-80z"/>
<path d="M6622 5515 c0 -16 2 -22 5 -12 2 9 2 23 0 30 -3 6 -5 -1 -5 -18z"/>
<path d="M6631 5284 c0 -11 3 -14 6 -6 3 7 2 16 -1 19 -3 4 -6 -2 -5 -13z"/>
<path d="M6703 4570 c0 -36 2 -50 4 -32 2 17 2 47 0 65 -2 17 -4 3 -4 -33z"/>
<path d="M6691 4414 c0 -11 3 -14 6 -6 3 7 2 16 -1 19 -3 4 -6 -2 -5 -13z"/>
<path d="M6703 3345 c0 -22 2 -30 4 -17 2 12 2 30 0 40 -3 9 -5 -1 -4 -23z"/>
<path d="M6721 3154 c0 -11 3 -14 6 -6 3 7 2 16 -1 19 -3 4 -6 -2 -5 -13z"/>
<path d="M3473 7031 c-129 -103 -307 -318 -382 -461 -40 -76 -36 -75 16 3 105
157 198 273 304 380 64 64 115 117 114 117 -2 0 -25 -17 -52 -39z"/>
<path d="M2474 5352 c-24 -19 -66 -80 -47 -69 12 7 78 87 71 87 -1 0 -13 -8
-24 -18z"/>
<path d="M1960 5195 c13 -14 26 -25 28 -25 3 0 -5 11 -18 25 -13 14 -26 25
-28 25 -3 0 5 -11 18 -25z"/>
<path d="M2993 7007 c0 -10 2 -15 4 -13 2 2 18 -10 34 -25 17 -16 36 -29 41
-29 6 0 -2 10 -18 22 -16 13 -36 31 -45 42 -14 16 -16 17 -16 3z"/>
<path d="M2825 6951 c10 -17 100 -42 169 -48 l69 -6 -34 -19 -34 -19 35 7 c46
8 70 22 70 38 0 10 -26 15 -93 20 -52 4 -115 13 -141 21 -26 8 -44 10 -41 6z"/>
<path d="M2842 6863 c2 -10 23 -28 48 -42 l45 -24 -39 34 c-35 29 -37 34 -20
40 15 6 14 8 -9 8 -22 1 -28 -3 -25 -16z"/>
<path d="M2905 6754 c-19 -15 -19 -16 -2 -29 17 -12 15 -15 -28 -40 -25 -15
-65 -33 -88 -40 -30 -9 -37 -15 -26 -20 9 -3 33 1 53 9 44 18 117 76 111 87
-3 4 3 10 12 12 17 4 17 5 1 6 -11 1 -15 6 -12 16 8 19 4 18 -21 -1z"/>
<path d="M2961 6699 c-13 -17 -21 -33 -18 -35 2 -3 16 11 31 31 15 19 23 35
18 35 -4 0 -18 -14 -31 -31z"/>
<path d="M1218 6573 c-54 -8 -27 -20 59 -27 107 -8 147 -19 241 -63 73 -35 97
-38 72 -8 -29 35 -142 76 -245 89 -27 4 -61 8 -75 10 -14 2 -37 1 -52 -1z"/>
<path d="M5477 4026 c-6 -16 13 -26 49 -26 26 0 30 10 12 28 -16 16 -55 15
-61 -2z"/>
<path d="M5444 3983 c-16 -16 -15 -18 12 -29 35 -15 38 -12 30 21 -7 29 -18
31 -42 8z"/>
<path d="M3320 3960 c-11 -21 -4 -25 24 -14 8 3 12 12 9 20 -7 20 -20 17 -33
-6z"/>
<path d="M5401 3946 c-10 -12 -8 -17 8 -25 26 -14 31 -14 31 3 0 24 -26 38
-39 22z"/>
<path d="M3415 3780 c-3 -5 -1 -10 4 -10 6 0 11 5 11 10 0 6 -2 10 -4 10 -3 0
-8 -4 -11 -10z"/>
<path d="M3475 3780 c-3 -5 -2 -10 4 -10 5 0 13 5 16 10 3 6 2 10 -4 10 -5 0
-13 -4 -16 -10z"/>
<path d="M3555 3770 c-3 -5 -2 -10 4 -10 5 0 13 5 16 10 3 6 2 10 -4 10 -5 0
-13 -4 -16 -10z"/>
<path d="M4236 3772 c-3 -6 3 -21 14 -33 l20 -24 -2 29 c-3 30 -21 45 -32 28z"/>
<path d="M4310 3331 c0 -17 104 -43 131 -32 23 8 22 9 -16 19 -73 19 -115 23
-115 13z"/>
<path d="M2596 3363 c-6 -14 -5 -15 5 -6 7 7 10 15 7 18 -3 3 -9 -2 -12 -12z"/>
<path d="M2536 3263 c-6 -14 -5 -15 5 -6 7 7 10 15 7 18 -3 3 -9 -2 -12 -12z"/>
<path d="M3201 3044 c0 -11 3 -14 6 -6 3 7 2 16 -1 19 -3 4 -6 -2 -5 -13z"/>
<path d="M6303 4824 c-24 -14 -43 -27 -43 -30 0 -6 67 33 85 48 17 15 1 8 -42
-18z"/>
<path d="M6080 4703 c-58 -30 -139 -73 -180 -94 -41 -21 -72 -38 -68 -38 15
-2 349 166 367 184 15 16 -27 -3 -119 -52z"/>
<path d="M3700 4365 c0 -14 4 -25 9 -25 5 0 8 11 7 25 -1 33 -16 33 -16 0z"/>
<path d="M3482 4278 c6 -18 23 -44 37 -58 21 -20 24 -21 16 -5 -4 11 -10 37
-13 58 -3 31 -8 37 -28 37 -22 0 -22 -2 -12 -32z"/>
<path d="M3700 4285 c0 -16 6 -25 16 -25 11 0 14 5 10 16 -3 9 -6 20 -6 25 0
5 -4 9 -10 9 -5 0 -10 -11 -10 -25z"/>
<path d="M3550 4191 c0 -5 5 -13 10 -16 6 -3 10 -2 10 4 0 5 -4 13 -10 16 -5
3 -10 2 -10 -4z"/>
<path d="M3590 4160 c0 -5 5 -10 10 -10 6 0 10 5 10 10 0 6 -4 10 -10 10 -5 0
-10 -4 -10 -10z"/>
<path d="M5227 4293 c-11 -11 -8 -31 6 -36 21 -8 39 7 31 26 -6 17 -25 22 -37
10z"/>
<path d="M6395 2980 c4 -250 10 -293 75 -480 21 -63 53 -162 70 -218 17 -57
34 -102 36 -99 6 5 -12 65 -86 297 -69 214 -81 283 -90 520 l-8 205 3 -225z"/>
<path d="M6022 2750 c-2 -110 15 -248 57 -469 52 -269 71 -399 90 -616 l19
-210 1 135 c1 182 -19 343 -84 670 -48 241 -67 373 -78 540 -2 25 -4 2 -5 -50z"/>
<path d="M3400 3223 c0 -69 -29 -232 -55 -311 -15 -42 -75 -178 -135 -302
-135 -279 -165 -362 -156 -442 6 -53 33 -135 40 -127 2 2 -3 38 -12 80 -14 67
-14 83 -2 135 l14 59 12 -65 c18 -101 64 -208 84 -195 12 7 27 -16 35 -55 8
-40 24 -74 31 -67 3 3 -1 38 -10 78 -37 185 -29 371 26 579 17 63 36 140 43
170 7 30 24 87 38 125 14 39 30 96 36 129 14 76 26 246 17 246 -3 0 -6 -17 -6
-37z m-126 -563 c-13 -41 -34 -126 -46 -190 -20 -98 -22 -137 -18 -261 3 -96
2 -145 -5 -143 -14 6 -49 63 -63 101 -10 29 -7 38 24 90 19 31 34 62 34 67 -1
6 -10 -5 -20 -24 -11 -19 -28 -46 -39 -59 l-19 -25 -7 65 c-4 40 -2 75 5 94
16 43 173 365 176 362 2 -1 -8 -36 -22 -77z"/>
<path d="M3722 2992 c-3 -65 -37 -223 -77 -354 -60 -200 -155 -390 -260 -523
-17 -22 -42 -58 -55 -80 l-24 -40 47 50 c45 47 187 249 187 266 0 4 17 45 39
91 73 156 155 478 148 579 -3 50 -3 50 -5 11z"/>
<path d="M4291 2914 c0 -11 3 -14 6 -6 3 7 2 16 -1 19 -3 4 -6 -2 -5 -13z"/>
<path d="M4289 2688 c0 -13 -3 -53 -8 -91 -4 -37 -4 -64 0 -60 9 10 23 173 15
173 -3 0 -6 -10 -7 -22z"/>
<path d="M4659 2453 c-1 -2 -2 -6 -4 -10 -1 -5 -7 -21 -13 -36 -18 -43 -15
-65 12 -82 19 -12 29 -14 44 -6 35 18 56 111 30 128 -12 7 -66 12 -69 6z m36
-82 c-17 -33 -25 -37 -42 -20 -15 15 3 65 31 84 20 15 21 14 24 -9 2 -14 -4
-38 -13 -55z m15 -25 c0 -2 -8 -10 -17 -17 -16 -13 -17 -12 -4 4 13 16 21 21
21 13z"/>
<path d="M4603 2296 c7 -14 13 -23 15 -21 7 6 -9 45 -18 45 -4 0 -3 -11 3 -24z"/>
<path d="M4449 2273 c-13 -16 -12 -17 4 -4 9 7 17 15 17 17 0 8 -8 3 -21 -13z"/>
<path d="M4580 2278 c0 -7 3 -24 7 -37 6 -23 7 -23 13 -6 8 23 1 55 -11 55 -5
0 -9 -6 -9 -12z"/>
<path d="M4369 2203 c-13 -16 -12 -17 4 -4 16 13 21 21 13 21 -2 0 -10 -8 -17
-17z"/>
<path d="M4620 2150 c-6 -11 -10 -40 -8 -63 3 -39 5 -42 36 -45 27 -3 34 1 43
24 6 17 7 42 2 64 -7 28 -14 36 -35 38 -19 2 -30 -3 -38 -18z m48 -31 c3 -37
-20 -75 -39 -64 -10 7 -12 65 -3 90 12 29 39 12 42 -26z"/>
<path d="M4226 2035 c-9 -26 -7 -32 5 -12 6 10 9 21 6 23 -2 3 -7 -2 -11 -11z"/>
<path d="M4599 1973 l-2 -38 -7 35 -7 35 -2 -37 c-1 -28 3 -38 14 -38 11 0 15
11 15 40 0 51 -10 53 -11 3z"/>
<path d="M4616 1858 c-9 -12 -16 -28 -16 -35 0 -24 23 -61 41 -66 22 -6 54 27
43 44 -5 8 -3 10 6 4 10 -6 11 -1 6 21 -15 57 -52 72 -80 32z m52 -46 c-2 -26
-8 -38 -20 -40 -24 -5 -41 39 -28 73 8 22 13 24 30 15 17 -9 20 -19 18 -48z"/>
<path d="M3222 1839 c-19 -7 -23 -29 -6 -29 3 0 2 5 -1 10 -4 6 6 10 22 11 15
0 37 4 48 9 17 7 16 9 -10 9 -16 0 -40 -4 -53 -10z"/>
<path d="M3283 1770 c0 -25 2 -35 4 -22 2 12 2 32 0 45 -2 12 -4 2 -4 -23z"/>
<path d="M4598 1658 c3 -31 7 -37 13 -25 10 17 2 67 -10 67 -4 0 -5 -19 -3
-42z"/>
<path d="M4582 1655 c0 -16 2 -22 5 -12 2 9 2 23 0 30 -3 6 -5 -1 -5 -18z"/>
<path d="M4128 1263 c7 -3 16 -2 19 1 4 3 -2 6 -13 5 -11 0 -14 -3 -6 -6z"/>
<path d="M4140 1193 c0 -6 16 -30 35 -55 54 -72 112 -72 141 -3 22 54 16 63
-9 14 -18 -33 -30 -45 -51 -47 -32 -4 -48 8 -88 62 -15 21 -28 34 -28 29z"/>
<path d="M3751 995 c1 -19 18 -51 18 -35 0 8 -4 22 -9 30 -5 8 -9 11 -9 5z"/>
<path d="M5512 3210 c0 -14 2 -19 5 -12 2 6 2 18 0 25 -3 6 -5 1 -5 -13z"/>
<path d="M5421 3144 c0 -11 3 -14 6 -6 3 7 2 16 -1 19 -3 4 -6 -2 -5 -13z"/>
<path d="M5511 2104 c0 -11 3 -14 6 -6 3 7 2 16 -1 19 -3 4 -6 -2 -5 -13z"/>
<path d="M5039 2602 c-3 -20 -2 -29 4 -23 5 5 7 19 5 32 -3 20 -5 19 -9 -9z"/>
<path d="M5240 2475 c0 -8 9 -19 20 -25 21 -11 25 -4 14 24 -8 20 -34 21 -34
1z"/>
<path d="M5060 2420 c25 -5 58 -13 73 -19 16 -6 26 -7 22 -1 -8 13 -73 30
-110 29 -23 -1 -20 -3 15 -9z"/>
<path d="M4781 2344 c0 -11 3 -14 6 -6 3 7 2 16 -1 19 -3 4 -6 -2 -5 -13z"/>
<path d="M5033 2175 c0 -27 2 -38 4 -22 2 15 2 37 0 50 -2 12 -4 0 -4 -28z"/>
<path d="M5150 1930 c-9 -6 -10 -10 -3 -10 6 0 15 5 18 10 8 12 4 12 -15 0z"/>
<path d="M5285 1840 c-16 -7 -17 -9 -3 -9 9 -1 20 4 23 9 7 11 7 11 -20 0z"/>
<path d="M5270 2186 c0 -2 8 -10 18 -17 15 -13 16 -12 3 4 -13 16 -21 21 -21
13z"/>
<path d="M5126 2140 c7 -40 44 -110 70 -131 10 -8 4 6 -13 31 -16 25 -37 65
-46 90 -15 40 -16 41 -11 10z"/>
<path d="M5322 2111 c12 -22 24 -38 26 -36 5 4 -37 75 -44 75 -3 0 6 -18 18
-39z"/>
<path d="M5130 2037 c0 -17 20 -45 37 -51 16 -5 16 -5 2 6 -8 7 -21 22 -27 33
-6 11 -12 16 -12 12z"/>
<path d="M5794 1968 l-19 -23 23 19 c12 11 22 21 22 23 0 8 -8 2 -26 -19z"/>
<path d="M5710 1883 l-55 -58 58 55 c53 50 62 60 54 60 -1 0 -27 -26 -57 -57z"/>
<path d="M5609 1793 l-34 -38 38 34 c34 33 42 41 34 41 -2 0 -19 -17 -38 -37z"/>
<path d="M6014 1605 c-1 -77 -56 -104 -182 -91 -38 4 -50 3 -37 -3 11 -5 54
-10 96 -10 62 -1 81 3 102 19 26 21 47 94 31 110 -5 5 -9 -6 -10 -25z"/>
<path d="M5803 1533 c9 -2 25 -2 35 0 9 3 1 5 -18 5 -19 0 -27 -2 -17 -5z"/>
<path d="M6337 1229 c7 -7 15 -10 18 -7 3 3 -2 9 -12 12 -14 6 -15 5 -6 -5z"/>
<path d="M4723 940 c0 -25 2 -35 4 -22 2 12 2 32 0 45 -2 12 -4 2 -4 -23z"/>
<path d="M4731 864 c0 -11 3 -14 6 -6 3 7 2 16 -1 19 -3 4 -6 -2 -5 -13z"/>
</g>
</svg>
